<?xml version="1.0" encoding="UTF-8" ?>
<!DOCTYPE svg PUBLIC "-//W3C//DTD SVG 1.1//EN" "http://www.w3.org/Graphics/SVG/1.1/DTD/svg11.dtd">
<svg width="225pt" height="225pt" viewBox="0 0 225 225" version="1.1" xmlns="http://www.w3.org/2000/svg">
<g id="#ffffffff">
</g>
<g id="#e54445ff">
<path fill="#e54445" opacity="1.00" d=" M 92.70 35.20 C 97.04 33.53 101.55 35.82 105.97 35.03 C 111.75 34.18 117.65 34.57 123.35 35.76 C 123.30 39.52 123.16 43.29 123.56 47.03 C 127.35 47.51 130.57 49.67 134.13 50.82 C 137.79 49.96 139.03 44.81 142.82 44.17 C 146.08 45.66 148.49 48.46 151.08 50.85 C 153.17 53.15 155.65 55.29 156.92 58.18 C 156.53 62.14 151.22 63.39 150.30 66.98 C 151.50 70.60 153.18 74.18 154.71 77.65 C 158.22 77.92 161.75 77.70 165.27 77.76 C 166.86 84.81 167.09 92.36 165.18 99.37 C 161.61 99.39 158.05 99.43 154.48 99.39 C 153.53 103.37 151.16 106.87 150.22 110.80 C 152.21 113.46 155.20 115.25 156.94 118.11 C 156.99 120.16 155.19 121.55 154.08 123.07 C 150.78 126.77 147.30 130.63 142.86 132.92 C 138.93 132.38 137.71 127.40 134.13 126.20 C 130.54 127.65 127.05 129.33 123.39 130.59 C 123.29 134.14 123.27 137.71 123.37 141.27 C 116.35 142.88 108.95 142.77 101.90 141.45 C 96.99 142.49 91.69 143.16 86.95 141.02 C 81.15 138.93 77.28 133.64 75.32 128.00 C 70.43 126.33 65.72 123.23 63.65 118.31 C 61.09 113.14 62.36 107.19 64.22 102.02 C 59.40 96.87 57.01 89.23 59.64 82.45 C 60.78 78.56 63.92 75.88 66.77 73.22 C 64.57 67.00 65.93 59.43 71.01 55.01 C 73.51 52.56 76.98 51.68 80.16 50.51 C 80.56 43.35 85.75 36.99 92.70 35.20 M 84.11 50.76 C 88.19 51.86 92.42 53.54 94.88 57.18 C 96.30 58.73 97.21 62.27 93.91 61.73 C 91.56 59.61 89.95 56.46 86.76 55.44 C 80.94 52.86 73.34 55.64 70.76 61.50 C 69.04 64.53 69.38 68.07 69.83 71.36 C 72.72 71.20 75.85 69.85 78.57 71.42 C 78.55 71.93 78.52 72.96 78.50 73.47 C 74.75 74.65 70.48 74.81 67.44 77.60 C 60.87 82.63 60.52 93.67 66.89 99.01 C 69.13 97.28 71.43 95.36 74.26 94.75 C 76.10 94.42 76.90 95.26 76.64 97.25 C 74.42 98.96 71.59 99.74 69.62 101.78 C 65.45 106.04 64.97 113.16 67.92 118.21 C 69.28 120.77 71.95 122.16 74.19 123.83 C 75.14 119.28 75.94 114.50 78.89 110.73 C 79.80 110.45 80.73 110.24 81.68 110.10 C 82.31 113.94 78.95 116.78 78.58 120.47 C 77.16 128.32 82.85 136.16 90.26 138.44 C 97.38 140.24 105.59 136.81 108.92 130.17 C 111.95 123.33 110.36 115.60 110.59 108.36 C 105.80 108.44 101.01 108.50 96.23 108.35 C 95.77 110.14 95.37 111.94 95.05 113.76 C 96.69 115.43 98.76 117.43 98.10 120.03 C 97.74 123.95 92.54 125.94 89.57 123.50 C 86.60 121.53 86.82 116.70 89.72 114.76 C 93.28 112.52 90.66 106.40 94.92 104.91 C 100.14 104.36 105.41 104.85 110.65 104.58 C 110.63 102.25 110.62 99.92 110.63 97.60 C 109.56 97.60 108.49 97.60 107.42 97.60 C 105.67 99.32 103.88 101.97 101.02 101.16 C 97.85 100.83 95.55 97.50 96.48 94.44 C 97.20 90.68 102.62 88.86 105.21 91.85 C 106.53 93.56 108.52 94.04 110.61 94.08 C 110.66 91.63 110.63 89.17 110.54 86.73 C 105.85 87.07 101.03 86.31 96.41 87.12 C 94.60 89.24 92.04 91.31 89.06 90.07 C 83.98 88.72 84.58 80.00 89.99 79.67 C 93.85 78.38 95.34 83.82 98.98 83.17 C 102.78 82.85 106.91 83.81 110.51 82.71 C 110.90 78.40 110.60 74.06 110.61 69.73 C 108.18 72.09 106.98 75.73 103.93 77.38 C 100.76 77.64 98.09 75.34 95.15 74.48 C 92.89 75.97 90.26 76.36 87.70 75.42 C 86.66 73.73 85.08 72.09 85.49 69.92 C 85.62 66.02 90.80 63.82 93.94 65.92 C 95.79 66.92 95.90 69.24 96.84 70.90 C 98.73 72.15 100.92 72.79 103.02 73.59 C 105.53 70.23 107.61 66.54 110.43 63.41 C 110.72 59.29 110.78 55.15 110.60 51.02 C 110.37 44.78 105.20 39.22 99.03 38.41 C 91.77 37.27 84.04 43.22 84.11 50.76 M 108.27 38.58 C 111.58 41.48 114.00 45.54 114.24 50.00 C 114.43 54.48 114.19 58.96 114.38 63.44 C 129.35 64.00 141.24 80.13 136.91 94.57 C 137.15 95.29 137.39 96.01 137.62 96.73 C 137.20 97.03 136.35 97.63 135.93 97.93 C 132.59 106.74 123.80 113.15 114.39 113.59 C 113.98 119.22 115.22 125.19 112.80 130.50 C 111.59 133.57 109.16 135.89 107.10 138.39 C 111.25 139.08 115.48 138.66 119.66 138.55 C 119.76 134.99 119.74 131.43 119.70 127.87 C 124.96 126.15 130.04 123.99 135.02 121.60 C 138.05 123.51 140.13 126.58 142.88 128.87 C 146.43 125.82 149.73 122.48 152.80 118.95 C 150.51 116.21 147.63 114.01 145.48 111.15 C 147.87 106.11 150.21 101.05 151.84 95.69 C 155.34 95.74 158.85 95.75 162.36 95.68 C 162.86 90.99 162.99 86.27 162.34 81.59 C 158.83 81.48 155.31 81.44 151.80 81.49 C 150.39 78.01 149.63 74.27 147.75 70.99 C 146.94 69.39 145.93 67.84 145.65 66.04 C 147.53 62.97 150.64 60.95 152.76 58.07 C 149.68 54.59 146.39 51.33 142.86 48.31 C 140.10 50.55 138.09 53.69 135.00 55.48 C 130.11 53.67 125.47 51.02 120.35 49.66 C 118.97 46.31 120.08 42.27 119.61 38.66 C 115.83 38.38 112.04 38.16 108.27 38.58 M 114.42 67.23 C 114.40 70.08 114.42 72.92 114.39 75.77 C 117.27 77.01 120.47 78.05 122.42 80.68 C 125.38 84.35 125.88 89.58 124.00 93.86 C 122.52 98.00 118.26 100.06 114.35 101.33 C 114.34 104.19 114.33 107.06 114.36 109.92 C 124.93 109.28 134.17 99.63 133.97 88.97 C 134.46 78.10 125.32 67.81 114.42 67.23 M 89.17 71.85 C 90.31 72.04 91.48 72.07 92.63 71.83 C 92.60 71.24 92.54 70.06 92.51 69.47 C 91.84 69.34 90.50 69.09 89.83 68.96 C 89.61 69.92 89.39 70.88 89.17 71.85 M 114.42 79.95 C 114.53 85.76 114.14 91.58 114.65 97.38 C 116.67 96.36 118.90 95.33 120.03 93.24 C 123.43 88.54 120.21 80.76 114.42 79.95 M 89.35 83.41 C 89.42 84.39 89.53 85.36 89.69 86.33 C 91.13 87.44 92.19 85.71 93.25 84.95 C 92.24 83.77 90.89 83.25 89.35 83.41 M 100.34 97.33 C 100.95 97.39 102.18 97.53 102.79 97.59 C 103.39 96.46 104.01 94.04 101.90 94.21 C 99.77 93.74 100.45 96.03 100.34 97.33 M 91.42 117.58 C 91.39 118.14 91.33 119.28 91.30 119.84 C 91.75 121.21 93.62 120.30 94.64 120.54 C 94.36 119.51 94.05 118.49 93.74 117.47 C 93.16 117.50 92.00 117.55 91.42 117.58 Z" />
</g>
</svg>
